<?xml version="1.0" standalone="no"?>
<!DOCTYPE svg PUBLIC "-//W3C//DTD SVG 20010904//EN"
 "http://www.w3.org/TR/2001/REC-SVG-20010904/DTD/svg10.dtd">
<svg version="1.0" xmlns="http://www.w3.org/2000/svg"
 width="100.000000pt" height="75.000000pt" viewBox="0 0 100.000000 75.000000"
 preserveAspectRatio="xMidYMid meet">

<g transform="translate(0.000000,75.000000) scale(0.100000,-0.100000)"
fill="#000000" stroke="none">
<path d="M180 220 l0 -50 40 0 c22 0 40 4 40 8 0 5 -10 8 -21 8 -12 -1 -24 5
-26 12 -3 7 4 12 16 12 11 0 23 5 26 10 4 6 -5 10 -19 10 -35 0 -34 27 2 33
19 3 14 4 -15 6 l-43 1 0 -50z"/>
<path d="M312 258 c-15 -15 -15 -43 -2 -69 12 -21 74 -27 86 -8 5 8 -1 10 -20
7 -26 -5 -56 12 -56 32 0 21 32 40 57 34 18 -5 24 -3 19 5 -9 15 -69 14 -84
-1z"/>
<path d="M446 254 c-21 -21 -20 -47 2 -67 29 -27 49 -21 24 6 -27 29 -27 31 0
57 18 16 19 20 6 20 -9 0 -24 -7 -32 -16z"/>
</g>
</svg>
